<svg width="902" height="902" viewBox="0 0 902 902" fill="none" xmlns="http://www.w3.org/2000/svg">
<path d="M180.599 623.458H50.8235V286.173H179.282C213.976 286.173 243.95 292.925 269.202 306.43C294.565 319.824 314.108 339.148 327.832 364.4C341.666 389.543 348.583 419.681 348.583 454.815C348.583 489.949 341.721 520.142 327.997 545.395C314.273 570.537 294.839 589.861 269.696 603.366C244.554 616.76 214.855 623.458 180.599 623.458ZM142.391 545.724H177.305C193.994 545.724 208.212 543.034 219.96 537.654C231.818 532.274 240.821 522.997 246.969 509.822C253.227 496.646 256.357 478.311 256.357 454.815C256.357 431.319 253.173 412.984 246.805 399.809C240.546 386.634 231.324 377.356 219.137 371.976C207.059 366.596 192.237 363.906 174.67 363.906H142.391V545.724Z" fill="white"/>
<path d="M418.201 623.458L318.728 286.173H420.836L466.949 493.682H469.584L524.261 286.173H604.63L659.307 494.341H661.942L708.055 286.173H810.163L710.69 623.458H623.075L565.763 435.052H563.128L505.816 623.458H418.201Z" fill="#0062BD"/>
</svg>
